<svg width="113" height="30" viewBox="0 0 113 30" fill="none" xmlns="http://www.w3.org/2000/svg">
<g clip-path="url(#clip0_1444_2714)">
<path d="M43.572 14.8653L37.4985 23.7061H40.3149L45.0659 16.702C45.6536 17.7306 46.3149 18.8082 47.0006 19.8122L49.7189 23.7061H52.5598L46.5598 14.8408L52.4863 6H49.7189L45.0414 13.0531C44.5271 12.0735 43.9394 11.0939 43.1557 9.94286L40.3883 6H37.523L43.572 14.8653Z" fill="black"/>
<path d="M57.8034 23.7061H60.081L65.0769 11.7306H62.6769L60.0075 18.4163C59.5912 19.4694 59.1994 20.498 59.0034 21.2816C58.8075 20.5469 58.4647 19.5429 58.0483 18.4163L55.4279 11.7306H52.979L57.8034 23.7061Z" fill="black"/>
<path d="M72.0156 24C74.9788 24 76.987 22.5551 77.5747 19.9837H75.4196C75.0278 21.3551 73.8523 22.0898 72.0645 22.0898C69.787 22.0898 68.4645 20.6939 68.2931 18.1714L77.5503 18.1469V17.2898C77.5503 13.7388 75.3217 11.3878 71.9176 11.3878C68.4401 11.3878 66.0645 13.9837 66.0645 17.7306C66.0645 21.4531 68.489 24 72.0156 24ZM71.9176 13.3224C73.9503 13.3224 75.2482 14.6449 75.2482 16.6286H68.3421C68.636 14.5224 69.9094 13.3224 71.9176 13.3224Z" fill="black"/>
<path d="M87.4684 11.6327C87.0031 11.5347 86.6603 11.4857 86.2439 11.4857C84.6031 11.4857 83.4031 12.3184 82.9133 13.5673L82.7664 11.7551H80.6113V23.7061H82.9133V17.3633C82.9133 15.0612 84.2603 13.7388 86.4399 13.7388H87.4684V11.6327Z" fill="black"/>
<path d="M89.1378 20.2286C89.1378 22.5061 90.9255 24 93.7418 24C96.5826 24 98.5418 22.5551 98.5418 20.2776C98.5418 18.4898 97.5378 17.5592 95.5051 17.0694L93.399 16.5551C92.2235 16.2612 91.6357 15.7224 91.6357 14.9143C91.6357 13.8122 92.4439 13.1755 93.8888 13.1755C95.2847 13.1755 96.0928 13.9347 96.1418 15.1347H98.3459C98.2969 12.8571 96.5826 11.3878 93.9622 11.3878C91.3173 11.3878 89.4561 12.7837 89.4561 14.9878C89.4561 16.751 90.4602 17.8041 92.5908 18.3184L94.6969 18.8082C95.9459 19.1265 96.3378 19.6163 96.3378 20.4245C96.3378 21.5265 95.4071 22.1878 93.7908 22.1878C92.2724 22.1878 91.3418 21.4531 91.3418 20.2286H89.1378Z" fill="black"/>
<path d="M106.752 24C109.715 24 111.723 22.5551 112.311 19.9837H110.156C109.764 21.3551 108.589 22.0898 106.801 22.0898C104.523 22.0898 103.201 20.6939 103.029 18.1714L112.287 18.1469V17.2898C112.287 13.7388 110.058 11.3878 106.654 11.3878C103.176 11.3878 100.801 13.9837 100.801 17.7306C100.801 21.4531 103.225 24 106.752 24ZM106.654 13.3224C108.687 13.3224 109.984 14.6449 109.984 16.6286H103.078C103.372 14.5224 104.646 13.3224 106.654 13.3224Z" fill="black"/>
<path fill-rule="evenodd" clip-rule="evenodd" d="M4.93668 3.87616C10.6402 -1.29209 19.36 -1.29205 25.0634 3.87628L23.7339 5.20587C18.7666 0.768317 11.2336 0.768276 6.26627 5.20575L4.93668 3.87616ZM26.1241 4.93696L24.7945 6.26655C29.2317 11.2338 29.2316 18.7665 24.7943 23.7337L26.1238 25.0633C31.292 19.3599 31.292 10.6404 26.1241 4.93696ZM6.26655 24.7945C11.2338 29.2316 18.7664 29.2316 23.7336 24.7944L25.0632 26.124C19.3598 31.292 10.6404 31.292 4.93696 26.1241L6.26655 24.7945ZM5.20587 23.7339L3.87628 25.0634C-1.29201 19.36 -1.29209 10.6404 3.87603 4.93683L5.20562 6.26642C0.768277 11.2338 0.76836 18.7666 5.20587 23.7339ZM24.348 8.73691C23.9471 8.14 23.4829 7.57301 22.9552 7.04539C19.4601 3.55021 14.2372 2.83563 10.0356 4.90165L10.9772 6.53256C14.4578 4.87902 18.747 5.49254 21.6275 8.37311C22.0364 8.78198 22.3996 9.21922 22.7171 9.67851L24.348 8.73691ZM23.468 10.9771L25.0989 10.0355C27.165 14.2371 26.4505 19.46 22.9552 22.9553C22.4275 23.483 21.8604 23.9474 21.2634 24.3483L20.3218 22.7174C20.7812 22.3998 21.2186 22.0365 21.6275 21.6276C24.5082 18.7469 25.1216 14.4577 23.468 10.9771ZM19.0232 23.4682C15.5427 25.1217 11.2536 24.5081 8.37306 21.6276C7.96398 21.2185 7.60061 20.781 7.28297 20.3214L5.65208 21.263C6.05308 21.8602 6.51751 22.4275 7.04535 22.9553C10.5405 26.4504 15.7632 27.165 19.9648 25.0991L19.0232 23.4682ZM4.90133 19.9644L6.53224 19.0228C4.87904 15.5423 5.49265 11.2535 8.37306 8.37311C8.782 7.96418 9.21932 7.60093 9.67868 7.28337L8.73708 5.65247C8.1401 6.0534 7.57303 6.51771 7.04535 7.04539C3.55032 10.5404 2.83565 15.7629 4.90133 19.9644ZM20.3034 9.69663C21.4107 10.804 22.0994 12.1715 22.3695 13.6025L20.4863 13.7672C20.2615 12.762 19.7579 11.8066 18.9756 11.0243C17.9443 9.99301 16.612 9.44611 15.2614 9.38364L15.0967 7.50055C16.9838 7.52471 18.8635 8.25674 20.3034 9.69663ZM13.6023 7.63058C12.1715 7.90063 10.8041 8.58931 9.69676 9.69663C8.25694 11.1364 7.52492 13.016 7.50068 14.903L9.38379 14.7382C9.44632 13.3878 9.99322 12.0556 11.0245 11.0243C11.8067 10.2422 12.762 9.73861 13.7671 9.51372L13.6023 7.63058ZM7.63066 16.3974C7.90067 17.8283 8.58937 19.1958 9.69676 20.3032C11.1366 21.743 13.0161 22.4751 14.9031 22.4993L14.7383 20.6162C13.3879 20.5536 12.0557 20.0068 11.0245 18.9755C10.2422 18.1932 9.73864 17.2378 9.51379 16.2326L7.63066 16.3974ZM20.3034 20.3032C19.196 21.4106 17.8284 22.0993 16.3974 22.3693L16.2327 20.4862C17.2379 20.2614 18.1934 19.7578 18.9756 18.9755C20.0069 17.9442 20.5538 16.612 20.6163 15.2616L22.4994 15.0968C22.4752 16.9838 21.7432 18.8634 20.3034 20.3032Z" fill="url(#paint0_linear_1444_2714)"/>
</g>
<defs>
<linearGradient id="paint0_linear_1444_2714" x1="4.46011" y1="25.7112" x2="30.9584" y2="-0.787075" gradientUnits="userSpaceOnUse">
<stop stop-color="#5565F7"/>
<stop offset="1" stop-color="#9EA7FA"/>
</linearGradient>
<clipPath id="clip0_1444_2714">
<rect width="112.312" height="30" fill="black"/>
</clipPath>
</defs>
</svg>